<svg width="32" height="32" viewBox="0 0 32 32" fill="none" xmlns="http://www.w3.org/2000/svg">
<path fill-rule="evenodd" clip-rule="evenodd" d="M23.9222 12.0043C24.3264 11.9763 24.7163 12.0863 25.0444 12.2996C25.3694 12.511 25.6149 12.8102 25.7742 13.1429C25.9315 13.4713 26.0061 13.8337 25.9995 14.193V20C25.9995 20.5523 25.5518 21 24.9995 21C24.4472 21 23.9995 20.5523 23.9995 20V14.1825L23.9998 14.1581C24.0004 14.1329 23.9985 14.109 23.9949 14.0872L21.1072 16.2945C20.6684 16.6299 20.0408 16.5461 19.7054 16.1073C19.37 15.6685 19.4538 15.0409 19.8926 14.7055L22.8769 12.4243C23.1683 12.1861 23.5287 12.0315 23.9222 12.0043ZM15.9999 20.5C16.5522 20.5 16.9999 20.9477 16.9999 21.5C16.9999 21.5962 17.0326 21.6676 17.0607 21.7042H18.4998C18.779 21.7042 19.0456 21.821 19.2349 22.0263L22.735 25.8221C23.1094 26.2281 23.0838 26.8608 22.6778 27.2352C22.2718 27.6096 21.6391 27.5839 21.2647 27.1779L18.0616 23.7042H16.9998C15.7366 23.7042 14.9999 22.5265 14.9999 21.5C14.9999 20.9477 15.4476 20.5 15.9999 20.5Z" fill="#396CF6"/>
<path fill-rule="evenodd" clip-rule="evenodd" d="M12 8C12 7.44772 12.4477 7 13 7H19C20.1046 7 21 7.89543 21 9V11.1075C21 11.6597 20.5523 12.1075 20 12.1075C19.4477 12.1075 19 11.6597 19 11.1075V9H13C12.4477 9 12 8.55229 12 8ZM5.28525 10.4081C5.67151 10.0133 6.30464 10.0065 6.69938 10.3927L11.3988 14.9911C11.7833 15.3673 12 15.8826 12 16.4206V23.0298L12.4097 22.7301C12.8555 22.4041 13.4811 22.5012 13.8072 22.947C14.1332 23.3928 14.0361 24.0185 13.5903 24.3445L13.1806 24.6441C11.8593 25.6105 10 24.6668 10 23.0298L10 16.4206L5.30062 11.8222C4.90587 11.4359 4.899 10.8028 5.28525 10.4081Z" fill="#396CF6"/>
<path fill-rule="evenodd" clip-rule="evenodd" d="M5.284 5.3019C5.66955 4.90646 6.30266 4.89845 6.6981 5.284L26.6981 24.784C27.0935 25.1695 27.1016 25.8027 26.716 26.1981C26.3305 26.5935 25.6973 26.6016 25.3019 26.216L5.3019 6.716C4.90646 6.33045 4.89845 5.69734 5.284 5.3019Z" fill="#396CF6"/>
</svg>
