<svg width="32" height="32" viewBox="0 0 32 32" fill="none" xmlns="http://www.w3.org/2000/svg">
<path fill-rule="evenodd" clip-rule="evenodd" d="M12.9224 4.00429C13.3265 3.97633 13.7164 4.0863 14.0445 4.29965C14.3695 4.51098 14.615 4.81023 14.7743 5.14289C14.9316 5.47128 15.0063 5.83369 14.9996 6.193V15.8161L14.9994 15.834C14.9851 16.634 14.5809 17.3344 13.9625 17.7132C13.3241 18.1044 12.4571 18.1336 11.7689 17.5592L11.7553 17.5476L8.12723 14.4077H6.99995C5.73675 14.4077 5 13.23 5 12.2035V9.79509C5 8.76855 5.73675 7.5909 6.99995 7.5909H8.13362L11.8558 4.44195C12.1508 4.19375 12.5192 4.03217 12.9224 4.00429ZM12.9964 6.09671L9.14574 9.35434C8.96519 9.50708 8.73636 9.5909 8.49987 9.5909H7.06083C7.03273 9.62752 7 9.69887 7 9.79509V12.2035C7 12.2997 7.03273 12.371 7.06083 12.4077H8.49987C8.74023 12.4077 8.97254 12.4942 9.15428 12.6515L12.965 15.9496C12.9821 15.9174 12.9975 15.8703 12.9996 15.8046V6.18251L12.9999 6.15815C13.0004 6.1365 12.9991 6.1159 12.9964 6.09671Z" fill="#396CF6"/>
<path fill-rule="evenodd" clip-rule="evenodd" d="M20.2727 6.31365C20.6518 5.912 21.2847 5.89368 21.6864 6.27275C23.1098 7.6161 23.9627 9.23689 23.9998 10.9787C24.0001 10.9929 24.0001 11.0071 23.9998 11.0213C23.9627 12.7631 23.1098 14.3839 21.6864 15.7273C21.2847 16.1063 20.6518 16.088 20.2727 15.6864C19.8937 15.2847 19.912 14.6518 20.3136 14.2728C21.4416 13.2082 21.9703 12.0747 21.9997 11C21.9703 9.9253 21.4416 8.79181 20.3136 7.72727C19.912 7.34821 19.8937 6.71531 20.2727 6.31365Z" fill="#396CF6"/>
<path fill-rule="evenodd" clip-rule="evenodd" d="M17.2224 8.37124C17.5697 7.94179 18.1993 7.87516 18.6288 8.22242C19.4937 8.92179 20.049 9.90241 19.9967 11.0001C20.0488 12.0979 19.4926 13.0779 18.6294 13.7771C18.2003 14.1247 17.5706 14.0586 17.2229 13.6294C16.8753 13.2003 16.9414 12.5706 17.3706 12.2229C17.8725 11.8164 18.0207 11.3973 17.9976 11.0709C17.9942 11.0237 17.9942 10.9762 17.9976 10.929C18.0208 10.602 17.8728 10.1832 17.3712 9.7776C16.9418 9.43034 16.8751 8.80069 17.2224 8.37124Z" fill="#396CF6"/>
<path fill-rule="evenodd" clip-rule="evenodd" d="M18 22.1707C16.8348 22.5826 16 23.6938 16 25C16 26.6569 17.3431 28 19 28C20.6569 28 22 26.6569 22 25C22 23.6938 21.1652 22.5826 20 22.1707L20 18C20 17.4477 19.5523 17 19 17C18.4477 17 18 17.4477 18 18L18 22.1707ZM19 24V24C19.5523 24 20 24.4477 20 25C20 25.5523 19.5523 26 19 26C18.4477 26 18 25.5523 18 25C18 24.4478 18.4478 24.0001 19 24ZM24 20C24 19.4477 24.4477 19 25 19C25.5523 19 26 19.4477 26 20C26 20.5523 25.5523 21 25 21C24.4477 21 24 20.5523 24 20ZM25 17C23.3431 17 22 18.3432 22 20C22 21.3062 22.8348 22.4175 24 22.8293V27C24 27.5523 24.4477 28 25 28C25.5523 28 26 27.5523 26 27V22.8293C27.1652 22.4175 28 21.3062 28 20C28 18.3432 26.6569 17 25 17Z" fill="#396CF6"/>
</svg>
