<svg width="32" height="32" viewBox="0 0 32 32" fill="none" xmlns="http://www.w3.org/2000/svg">
<path fill-rule="evenodd" clip-rule="evenodd" d="M23.9224 12.0043C24.3265 11.9763 24.7164 12.0863 25.0445 12.2996C25.3695 12.511 25.615 12.8102 25.7743 13.1429C25.9316 13.4713 26.0063 13.8337 25.9996 14.193V23.816L25.9994 23.834C25.9851 24.634 25.5809 25.3344 24.9625 25.7132C24.3241 26.1044 23.4571 26.1336 22.7689 25.5592L22.7553 25.5476L19.1272 22.4077H17.9999C16.7368 22.4077 16 21.23 16 20.2035V17.7951C16 16.7685 16.7368 15.5909 17.9999 15.5909H19.1336L22.8558 12.4419C23.1508 12.1937 23.5192 12.0322 23.9224 12.0043ZM23.9964 14.0967L20.1457 17.3543C19.9652 17.5071 19.7364 17.5909 19.4999 17.5909H18.0608C18.0327 17.6275 18 17.6989 18 17.7951V20.2035C18 20.2997 18.0327 20.371 18.0608 20.4077H19.4999C19.7402 20.4077 19.9725 20.4942 20.1543 20.6515L23.965 23.9496C23.9821 23.9174 23.9975 23.8703 23.9996 23.8046V14.1825L23.9999 14.1581C24.0004 14.1365 23.9991 14.1159 23.9964 14.0967Z" fill="#396CF6"/>
<path fill-rule="evenodd" clip-rule="evenodd" d="M5 9C5 7.89543 5.89543 7 7 7L7 10.6869L11.3988 14.9911C11.7833 15.3673 12 15.8826 12 16.4206V23.0298L12.4097 22.7301C12.8555 22.4041 13.4811 22.5012 13.8072 22.947C14.1332 23.3928 14.0361 24.0185 13.5903 24.3445L13.1806 24.6441C11.8593 25.6105 10 24.6668 10 23.0298L10 16.4206L5.60123 12.1164C5.21672 11.7401 5 11.2248 5 10.6869V9ZM7 7H19C20.1046 7 21 7.89543 21 9V11.1075C21 11.6597 20.5523 12.1075 20 12.1075C19.4477 12.1075 19 11.6597 19 11.1075V9L7 9L7 7Z" fill="#396CF6"/>
</svg>
