<svg width="32" height="32" viewBox="0 0 32 32" fill="none" xmlns="http://www.w3.org/2000/svg">
<path fill-rule="evenodd" clip-rule="evenodd" d="M12.9177 4.00472C13.3391 3.97363 13.7396 4.09686 14.0692 4.32548C14.3941 4.55085 14.6323 4.86441 14.7846 5.20353C14.9354 5.53936 15.006 5.9077 14.9995 6.27137V10.6C14.9995 11.1523 14.5518 11.6 13.9995 11.6C13.4473 11.6 12.9995 11.1523 12.9995 10.6V6.26132L12.9998 6.23848C13.0005 6.20681 12.9986 6.17656 12.9947 6.14828L11.1201 8.09385C10.7368 8.49156 10.1038 8.50331 9.70609 8.1201C9.30838 7.73689 9.29663 7.10383 9.67984 6.70613L11.7795 4.52704C11.7963 4.50963 11.8137 4.49284 11.8317 4.47669C12.1238 4.21451 12.4982 4.03567 12.9177 4.00472ZM6.09005 10.5225C6.64233 10.5225 7.09005 10.9702 7.09005 11.5225V13.6061C7.09005 13.7402 7.1332 13.8398 7.17023 13.8906H8.58992C8.84133 13.8906 9.08351 13.9853 9.26823 14.1558L13.178 17.7652C13.5838 18.1398 13.6091 18.7725 13.2345 19.1783C12.8599 19.5841 12.2272 19.6094 11.8214 19.2348L8.19891 15.8906H7.09C6.44009 15.8906 5.92107 15.542 5.59658 15.1252C5.27078 14.7067 5.09005 14.1666 5.09005 13.6061V11.5225C5.09005 10.9702 5.53776 10.5225 6.09005 10.5225Z" fill="#396CF6"/>
<path fill-rule="evenodd" clip-rule="evenodd" d="M5.29289 6.29288C5.68342 5.90236 6.31658 5.90236 6.70711 6.29288L16.7071 16.2929C17.0976 16.6834 17.0976 17.3166 16.7071 17.7071C16.3166 18.0976 15.6834 18.0976 15.2929 17.7071L5.29289 7.7071C4.90237 7.31657 4.90237 6.68341 5.29289 6.29288Z" fill="#396CF6"/>
<path fill-rule="evenodd" clip-rule="evenodd" d="M18 22.1707C16.8348 22.5825 16 23.6938 16 25C16 26.6568 17.3431 28 19 28C20.6569 28 22 26.6568 22 25C22 23.6938 21.1652 22.5825 20 22.1707L20 18C20 17.4477 19.5523 17 19 17C18.4477 17 18 17.4477 18 18L18 22.1707ZM19 24C19 24 19 24 19 24C19.5523 24 20 24.4477 20 25C20 25.5523 19.5523 26 19 26C18.4477 26 18 25.5523 18 25C18 24.4478 18.4478 24.0001 19 24ZM24 20C24 19.4477 24.4477 19 25 19C25.5523 19 26 19.4477 26 20C26 20.5523 25.5523 21 25 21C24.4477 21 24 20.5523 24 20ZM25 17C23.3431 17 22 18.3431 22 20C22 21.3062 22.8348 22.4174 24 22.8293V27C24 27.5523 24.4477 28 25 28C25.5523 28 26 27.5523 26 27V22.8293C27.1652 22.4174 28 21.3062 28 20C28 18.3431 26.6569 17 25 17Z" fill="#396CF6"/>
</svg>
