<svg width="32" height="32" viewBox="0 0 32 32" fill="none" xmlns="http://www.w3.org/2000/svg">
<path fill-rule="evenodd" clip-rule="evenodd" d="M13 11C13.5523 11 14 11.4477 14 12V20C14 20.5523 13.5523 21 13 21C12.4477 21 12 20.5523 12 20V12C12 11.4477 12.4477 11 13 11Z" fill="#396CF6"/>
<path fill-rule="evenodd" clip-rule="evenodd" d="M19 11C19.5523 11 20 11.4477 20 12V20C20 20.5523 19.5523 21 19 21C18.4477 21 18 20.5523 18 20V12C18 11.4477 18.4477 11 19 11Z" fill="#396CF6"/>
<path fill-rule="evenodd" clip-rule="evenodd" d="M16 7C11.0294 7 7 11.0294 7 16C7 20.9706 11.0294 25 16 25C20.9706 25 25 20.9706 25 16C25 11.0294 20.9706 7 16 7ZM5 16C5 9.92487 9.92487 5 16 5C22.0751 5 27 9.92487 27 16C27 22.0751 22.0751 27 16 27C9.92487 27 5 22.0751 5 16Z" fill="#396CF6"/>
</svg>
