<svg width="32" height="32" viewBox="0 0 32 32" fill="none" xmlns="http://www.w3.org/2000/svg">
<path fill-rule="evenodd" clip-rule="evenodd" d="M16 7C11.0294 7 7 11.0294 7 16C7 20.9706 11.0294 25 16 25C20.9706 25 25 20.9706 25 16C25 11.0294 20.9706 7 16 7ZM5 16C5 9.92487 9.92487 5 16 5C22.0751 5 27 9.92487 27 16C27 22.0751 22.0751 27 16 27C9.92487 27 5 22.0751 5 16Z" fill="#396CF6"/>
<path d="M11.5 12.5C11.5 11.9477 11.9477 11.5 12.5 11.5H19.5C20.0523 11.5 20.5 11.9477 20.5 12.5V19.5C20.5 20.0523 20.0523 20.5 19.5 20.5H12.5C11.9477 20.5 11.5 20.0523 11.5 19.5V12.5Z" fill="#396CF6"/>
<path fill-rule="evenodd" clip-rule="evenodd" d="M10.5 12.5C10.5 11.3954 11.3954 10.5 12.5 10.5H19.5C20.6046 10.5 21.5 11.3954 21.5 12.5V19.5C21.5 20.6046 20.6046 21.5 19.5 21.5H12.5C11.3954 21.5 10.5 20.6046 10.5 19.5V12.5ZM19.5 12.5H12.5V19.5H19.5V12.5Z" fill="#396CF6"/>
</svg>
