<svg width="32" height="32" viewBox="0 0 32 32" fill="none" xmlns="http://www.w3.org/2000/svg">
<path d="M14 19.1295V13.8705C14 13.4846 14.4186 13.2442 14.7519 13.4386L19.2596 16.0681C19.5904 16.261 19.5904 16.739 19.2596 16.9319L14.7519 19.5614C14.4186 19.7558 14 19.5154 14 19.1295Z" fill="#396CF6"/>
<path fill-rule="evenodd" clip-rule="evenodd" d="M15 14.741V18.259L18.0154 16.5L15 14.741ZM13 13.8705C13 12.7128 14.2558 11.9915 15.2558 12.5749L19.7635 15.2043C20.7557 15.7831 20.7558 17.2168 19.7635 17.7957L15.2558 20.4251C14.2558 21.0085 13 20.2872 13 19.1295V13.8705Z" fill="#396CF6"/>
<path fill-rule="evenodd" clip-rule="evenodd" d="M10.9977 4.92046C13.6412 3.84126 16.5865 3.70672 19.3203 4.5397C24.7075 6.18117 28.6365 11.6467 27.9148 17.3486C27.183 23.1308 22.1973 27.6701 16.3628 27.9836C12.7757 28.1763 9.65149 26.8342 7.25261 24.6324C6.84573 24.259 6.81863 23.6264 7.19209 23.2195C7.56554 22.8126 8.19813 22.7855 8.60501 23.159C10.6551 25.0406 13.2667 26.147 16.2555 25.9865C21.1481 25.7236 25.3231 21.8974 25.9306 17.0975C26.5189 12.4497 23.28 7.83697 18.7374 6.45286C16.4431 5.75379 13.9706 5.86701 11.7536 6.7721C9.80735 7.56663 8.3242 9.1022 7.20764 11H10C10.5523 11 11 11.4477 11 12C11 12.5523 10.5523 13 10 13H5C4.44772 13 4 12.5523 4 12V7C4 6.44772 4.44772 6 5 6C5.55228 6 6 6.44772 6 7V9.16678C7.21991 7.35849 8.84603 5.79884 10.9977 4.92046Z" fill="#396CF6"/>
</svg>
