<svg width="32" height="32" viewBox="0 0 32 32" fill="none" xmlns="http://www.w3.org/2000/svg">
<path d="M13.5 18.5V14.5C13.5 14.2239 13.7239 14 14 14H18C18.2761 14 18.5 14.2239 18.5 14.5V18.5C18.5 18.7761 18.2761 19 18 19H14C13.7239 19 13.5 18.7761 13.5 18.5Z" fill="#396CF6"/>
<path fill-rule="evenodd" clip-rule="evenodd" d="M14.5 15V18H17.5V15H14.5ZM12.5 14.5C12.5 13.6716 13.1716 13 14 13H18C18.8284 13 19.5 13.6716 19.5 14.5V18.5C19.5 19.3284 18.8284 20 18 20H14C13.1716 20 12.5 19.3284 12.5 18.5V14.5Z" fill="#396CF6"/>
<path fill-rule="evenodd" clip-rule="evenodd" d="M10.9977 4.92046C13.6412 3.84126 16.5865 3.70672 19.3203 4.5397C24.7075 6.18117 28.6365 11.6467 27.9148 17.3486C27.183 23.1308 22.1973 27.6701 16.3628 27.9836C12.7757 28.1763 9.65149 26.8342 7.25261 24.6324C6.84573 24.259 6.81863 23.6264 7.19209 23.2195C7.56554 22.8126 8.19813 22.7855 8.60501 23.159C10.6551 25.0406 13.2667 26.147 16.2555 25.9865C21.1481 25.7236 25.3231 21.8974 25.9306 17.0975C26.5189 12.4497 23.28 7.83697 18.7374 6.45286C16.4431 5.75379 13.9706 5.86701 11.7536 6.7721C9.80735 7.56663 8.3242 9.1022 7.20764 11H10C10.5523 11 11 11.4477 11 12C11 12.5523 10.5523 13 10 13H5C4.44772 13 4 12.5523 4 12V7C4 6.44772 4.44772 6 5 6C5.55228 6 6 6.44772 6 7V9.16678C7.21991 7.35849 8.84603 5.79884 10.9977 4.92046Z" fill="#396CF6"/>
</svg>
