<svg width="32" height="32" viewBox="0 0 32 32" fill="none" xmlns="http://www.w3.org/2000/svg">
<path fill-rule="evenodd" clip-rule="evenodd" d="M7 7C5.89543 7 5 7.89543 5 9V20C5 21.1046 5.89543 22 7 22L15 22C15.5523 22 16 21.5523 16 21C16 20.4477 15.5523 20 15 20L7 20V13H23V16C23 16.5523 23.4477 17 24 17C24.5523 17 25 16.5523 25 16V9C25 7.89543 24.1046 7 23 7H7ZM23 11H7V9H23V11Z" fill="#396CF6"/>
<path d="M20.7071 19.2929C20.3166 18.9024 19.6834 18.9024 19.2929 19.2929C18.9024 19.6834 18.9024 20.3166 19.2929 20.7071L21.5858 23L19.2929 25.2929C18.9024 25.6834 18.9024 26.3166 19.2929 26.7071C19.6834 27.0976 20.3166 27.0976 20.7071 26.7071L23 24.4142L25.2929 26.7071C25.6834 27.0976 26.3166 27.0976 26.7071 26.7071C27.0976 26.3166 27.0976 25.6834 26.7071 25.2929L24.4142 23L26.7071 20.7071C27.0976 20.3166 27.0976 19.6834 26.7071 19.2929C26.3166 18.9024 25.6834 18.9024 25.2929 19.2929L23 21.5858L20.7071 19.2929Z" fill="#396CF6"/>
</svg>
