<svg width="32" height="32" viewBox="0 0 32 32" fill="none" xmlns="http://www.w3.org/2000/svg">
<path fill-rule="evenodd" clip-rule="evenodd" d="M5 9C5 7.89543 5.89543 7 7 7H23C24.1046 7 25 7.89543 25 9V16C25 16.5523 24.5523 17 24 17C23.4477 17 23 16.5523 23 16V13H7V20L15 20C15.5523 20 16 20.4477 16 21C16 21.5523 15.5523 22 15 22L7 22C5.89543 22 5 21.1046 5 20V9ZM7 11H23V9H7V11ZM20.1865 18.0397C20.4647 17.9751 20.7553 17.9896 21.0257 18.0813L21.0278 18.082L21.0296 18.0826L21.95 18.3937C22.5057 18.5814 23.2477 18.832 23.9936 19.0838C24.7395 19.3356 25.4889 19.5884 26.0593 19.7804C26.3446 19.8765 26.5847 19.9572 26.7571 20.015C26.8543 20.0475 26.9217 20.07 26.9632 20.0838C27.0031 20.0971 27.0191 20.1024 27.0147 20.1011L27.0175 20.1019C27.1338 20.1364 27.2824 20.1913 27.4311 20.2963C27.5031 20.3472 27.5559 20.3962 27.5885 20.4281C27.5993 20.4388 27.6093 20.4489 27.6153 20.4551C27.6173 20.4571 27.6199 20.4597 27.6199 20.4597C27.6236 20.4635 27.6254 20.4654 27.6254 20.4654L27.6274 20.4674C27.7455 20.585 27.8392 20.7248 27.9032 20.8787C27.9671 21.0327 28 21.1977 28 21.3644C28 21.5311 27.9671 21.6961 27.9032 21.85C27.8392 22.0039 27.7455 22.1437 27.6274 22.2613L27.625 22.2638C27.5 22.3874 27.3726 22.4624 27.2715 22.5107C27.2274 22.5317 27.1878 22.5479 27.166 22.5567C27.1523 22.5622 27.1442 22.5655 27.1379 22.568C27.1301 22.5711 27.1252 22.573 27.1158 22.5769C27.0796 22.5919 27.0492 22.6019 27.0414 22.6045C27.0352 22.6066 27.0286 22.6087 27.0232 22.6104C27.0173 22.6123 27.012 22.6139 27.0077 22.6152C26.9908 22.6203 26.9729 22.6255 26.9566 22.6302C26.9231 22.6397 26.8805 22.6514 26.8321 22.6645C26.7346 22.691 26.602 22.7263 26.4478 22.767C26.1389 22.8485 25.7359 22.9537 25.3367 23.0575C24.9721 23.1522 24.6099 23.246 24.3237 23.32L23.6495 25.9792C23.6428 26.0058 23.635 26.0321 23.6261 26.058C23.6251 26.0607 23.6241 26.0638 23.6229 26.0672C23.6085 26.1097 23.5751 26.2079 23.5276 26.3018C23.4547 26.4457 23.3688 26.5482 23.2926 26.6252L23.2887 26.6291C23.0512 26.8666 22.7291 27 22.3932 27C22.0573 27 21.7352 26.8666 21.4977 26.6291C21.3082 26.4396 21.2032 26.2279 21.1415 26.0267C21.1415 26.0267 21.1378 26.0159 21.1306 25.9946C21.0964 25.8947 20.9841 25.5663 20.8179 25.0818C20.6228 24.513 20.365 23.762 20.1079 23.0134L19.0826 20.0294L19.0812 20.0255C18.9893 19.7543 18.9751 19.4629 19.0402 19.1841C19.1054 18.9054 19.2473 18.6504 19.4499 18.4482C19.6525 18.2459 19.9077 18.1044 20.1865 18.0397ZM21.2833 20.2795L21.9994 22.3638C22.0964 22.6463 22.1942 22.931 22.2891 23.2072L22.5307 22.2542C22.6205 21.9 22.8964 21.6229 23.2503 21.5317L23.7431 21.4044C23.8877 21.367 24.056 21.3235 24.2367 21.2767C23.9477 21.1792 23.6493 21.0785 23.3539 20.9787C22.6079 20.7269 21.8656 20.4762 21.3099 20.2884L21.2833 20.2795Z" fill="#396CF6"/>
</svg>
