<svg width="32" height="32" viewBox="0 0 32 32" fill="none" xmlns="http://www.w3.org/2000/svg">
<path fill-rule="evenodd" clip-rule="evenodd" d="M19.2929 20.2929C19.6834 19.9024 20.3166 19.9024 20.7071 20.2929L23 22.5858L25.2929 20.2929C25.6834 19.9024 26.3166 19.9024 26.7071 20.2929C27.0976 20.6834 27.0976 21.3166 26.7071 21.7071L24.4142 24L26.7071 26.2929C27.0976 26.6834 27.0976 27.3166 26.7071 27.7071C26.3166 28.0976 25.6834 28.0976 25.2929 27.7071L23 25.4142L20.7071 27.7071C20.3166 28.0976 19.6834 28.0976 19.2929 27.7071C18.9024 27.3166 18.9024 26.6834 19.2929 26.2929L21.5858 24L19.2929 21.7071C18.9024 21.3166 18.9024 20.6834 19.2929 20.2929Z" fill="#396CF6"/>
<path fill-rule="evenodd" clip-rule="evenodd" d="M4 8C4 6.89543 4.89543 6 6 6H23C23.5523 6 24 6.44772 24 7C24 7.55228 23.5523 8 23 8H6V20C6 20.5523 5.55228 21 5 21C4.44772 21 4 20.5523 4 20V8Z" fill="#396CF6"/>
<path fill-rule="evenodd" clip-rule="evenodd" d="M8 12C8 10.8954 8.89543 10 10 10H26C27.1046 10 28 10.8954 28 12V17C28 17.5523 27.5523 18 27 18C26.4477 18 26 17.5523 26 17V16H10V23H16C16.5523 23 17 23.4477 17 24C17 24.5523 16.5523 25 16 25H10C8.89543 25 8 24.1046 8 23V12ZM10 14H26V12H10V14Z" fill="#396CF6"/>
</svg>
