<svg width="32" height="32" viewBox="0 0 32 32" fill="none" xmlns="http://www.w3.org/2000/svg">
<path fill-rule="evenodd" clip-rule="evenodd" d="M4 8C4 6.89543 4.89543 6 6 6H23C23.5523 6 24 6.44772 24 7C24 7.55228 23.5523 8 23 8H6V20C6 20.5523 5.55228 21 5 21C4.44772 21 4 20.5523 4 20V8ZM8 12C8 10.8954 8.89543 10 10 10H26C27.1046 10 28 10.8954 28 12V17C28 17.5523 27.5523 18 27 18C26.4477 18 26 17.5523 26 17V16H10V23H16C16.5523 23 17 23.4477 17 24C17 24.5523 16.5523 25 16 25H10C8.89543 25 8 24.1046 8 23V12ZM10 14H26V12H10V14ZM20.1865 19.0397C20.4647 18.9751 20.7554 18.9896 21.0258 19.0814L21.0278 19.082L21.0296 19.0826L21.95 19.3937C22.5057 19.5814 23.2477 19.832 23.9936 20.0838C24.7395 20.3356 25.4889 20.5884 26.0593 20.7804C26.3446 20.8765 26.5847 20.9572 26.7571 21.015C26.8543 21.0475 26.9217 21.07 26.9632 21.0838C27.0031 21.0971 27.0191 21.1024 27.0147 21.1011L27.0175 21.1019C27.1338 21.1364 27.2824 21.1913 27.4311 21.2963C27.5031 21.3472 27.5559 21.3962 27.5885 21.4281C27.6019 21.4413 27.6141 21.4538 27.619 21.4588L27.6199 21.4597C27.6236 21.4636 27.6254 21.4654 27.6254 21.4654L27.6274 21.4674C27.7455 21.585 27.8392 21.7248 27.9032 21.8787C27.9671 22.0327 28 22.1977 28 22.3644C28 22.5311 27.9671 22.6961 27.9032 22.85C27.8392 23.0039 27.7455 23.1437 27.6274 23.2613L27.625 23.2638C27.5 23.3874 27.3726 23.4624 27.2715 23.5107C27.2274 23.5317 27.1878 23.5479 27.166 23.5567C27.1352 23.5691 27.1327 23.5699 27.1158 23.5769L27.166 23.5567L27.1179 23.5761C27.0807 23.5916 27.0493 23.6019 27.0414 23.6045C27.0283 23.6088 27.016 23.6127 27.0077 23.6152C26.9908 23.6203 26.9729 23.6255 26.9566 23.6301C26.9231 23.6397 26.8805 23.6514 26.8321 23.6645C26.7346 23.691 26.602 23.7263 26.4478 23.767C26.1389 23.8485 25.7359 23.9537 25.3367 24.0575C24.9721 24.1522 24.6099 24.246 24.3237 24.32L23.6495 26.9792C23.6428 27.0058 23.635 27.0321 23.6261 27.058C23.6251 27.0607 23.6241 27.0638 23.6229 27.0672C23.6085 27.1097 23.5751 27.2079 23.5276 27.3018C23.4547 27.4457 23.3688 27.5482 23.2926 27.6252L23.2887 27.6291C23.0512 27.8666 22.7291 28 22.3932 28C22.0573 28 21.7352 27.8666 21.4977 27.6291C21.3082 27.4396 21.2032 27.2279 21.1415 27.0267C21.1415 27.0267 21.1377 27.0155 21.1302 26.9935C21.0955 26.8922 20.9834 26.5645 20.8179 26.0818C20.6228 25.513 20.365 24.762 20.1079 24.0134L19.0826 21.0294L19.0812 21.0255C18.9893 20.7543 18.9751 20.4629 19.0402 20.1841C19.1054 19.9054 19.2473 19.6504 19.4499 19.4482C19.6525 19.2459 19.9077 19.1044 20.1865 19.0397ZM21.2833 21.2795L21.9994 23.3638C22.0964 23.6463 22.1942 23.931 22.2891 24.2072L22.5307 23.2542C22.6205 22.9 22.8964 22.6229 23.2503 22.5317L23.7431 22.4044C23.8877 22.367 24.056 22.3235 24.2367 22.2767C23.9477 22.1792 23.6493 22.0785 23.3539 21.9787C22.6079 21.7269 21.8656 21.4762 21.3099 21.2884L21.2833 21.2795Z" fill="#396CF6"/>
</svg>
