<svg width="32" height="32" viewBox="0 0 32 32" fill="none" xmlns="http://www.w3.org/2000/svg">
<path fill-rule="evenodd" clip-rule="evenodd" d="M6.49439 5L6.49547 5L10 5C10.5523 5 11 5.44772 11 6C11 6.55229 10.5523 7 10 7H7V10C7 10.5523 6.55228 11 6 11C5.44772 11 5 10.5523 5 10L5 6.49439C5.00043 6.09819 5.15801 5.71833 5.43817 5.43817C5.71833 5.15801 6.09819 5.00043 6.49439 5Z" fill="#396CF6"/>
<path fill-rule="evenodd" clip-rule="evenodd" d="M21 6C21 5.44772 21.4477 5 22 5H25.5051C26.3311 5 27 5.67028 27 6.49547V10C27 10.5523 26.5523 11 26 11C25.4477 11 25 10.5523 25 10V7H22C21.4477 7 21 6.55229 21 6Z" fill="#396CF6"/>
<path fill-rule="evenodd" clip-rule="evenodd" d="M6 21C6.55228 21 7 21.4477 7 22V25H10C10.5523 25 11 25.4477 11 26C11 26.5523 10.5523 27 10 27H6.49427C6.06211 26.9995 5.67204 26.8076 5.40198 26.5075C5.13504 26.2109 5.00037 25.8293 5 25.4504L5 22C5 21.4477 5.44772 21 6 21Z" fill="#396CF6"/>
<path fill-rule="evenodd" clip-rule="evenodd" d="M26 21C26.5523 21 27 21.4477 27 22V25.4495C27 25.8604 26.8369 26.2545 26.5465 26.5453C26.256 26.836 25.8621 26.9996 25.4512 27H22C21.4477 27 21 26.5523 21 26C21 25.4477 21.4477 25 22 25H25V22C25 21.4477 25.4477 21 26 21Z" fill="#396CF6"/>
<path fill-rule="evenodd" clip-rule="evenodd" d="M9 12C9 11.4477 9.44772 11 10 11H12C12.5523 11 13 11.4477 13 12C13 12.5523 12.5523 13 12 13H11V19H12C12.5523 19 13 19.4477 13 20C13 20.5523 12.5523 21 12 21H10C9.44772 21 9 20.5523 9 20V12ZM19 12C19 11.4477 19.4477 11 20 11H22C22.5523 11 23 11.4477 23 12V20C23 20.5523 22.5523 21 22 21H20C19.4477 21 19 20.5523 19 20C19 19.4477 19.4477 19 20 19H21V13H20C19.4477 13 19 12.5523 19 12Z" fill="#396CF6"/>
<path fill-rule="evenodd" clip-rule="evenodd" d="M16 15C15.4477 15 15 15.4477 15 16C15 16.5523 15.4477 17 16 17C16.5523 17 17 16.5523 17 16C17 15.4477 16.5523 15 16 15ZM13 16C13 14.3431 14.3431 13 16 13C17.6569 13 19 14.3431 19 16C19 17.6569 17.6569 19 16 19C14.3431 19 13 17.6569 13 16Z" fill="#396CF6"/>
</svg>
