<svg width="32" height="32" viewBox="0 0 32 32" fill="none" xmlns="http://www.w3.org/2000/svg">
<path fill-rule="evenodd" clip-rule="evenodd" d="M8.70711 5.2929C9.09763 5.68342 9.09763 6.31659 8.7071 6.70711L7.41421 7.99999L8.70711 9.2929C9.09763 9.68342 9.09763 10.3166 8.7071 10.7071C8.31658 11.0976 7.68341 11.0976 7.29289 10.7071L5.29289 8.70708C5.10535 8.51954 5 8.26519 5 7.99997C5 7.73476 5.10536 7.4804 5.2929 7.29287L7.2929 5.29289C7.68342 4.90237 8.31659 4.90237 8.70711 5.2929Z" fill="#396CF6"/>
<path fill-rule="evenodd" clip-rule="evenodd" d="M11.2929 5.2929C10.9024 5.68342 10.9024 6.31659 11.2929 6.70711L12.5858 7.99999L11.2929 9.2929C10.9024 9.68342 10.9024 10.3166 11.2929 10.7071C11.6834 11.0976 12.3166 11.0976 12.7071 10.7071L14.7071 8.70708C14.8946 8.51954 15 8.26519 15 7.99997C15 7.73476 14.8946 7.4804 14.7071 7.29287L12.7071 5.29289C12.3166 4.90237 11.6834 4.90237 11.2929 5.2929Z" fill="#396CF6"/>
<path fill-rule="evenodd" clip-rule="evenodd" d="M18 21C18.5523 21 19 21.4477 19 22C19 21.9945 19.0003 21.9917 19.0003 21.9917C19.0027 21.9914 19.0215 22.1049 19.1729 22.3266C19.3303 22.557 19.5793 22.8264 19.9123 23.0838C20.5813 23.6008 21.4967 24 22.5 24C23.5033 24 24.4187 23.6008 25.0877 23.0838C25.4207 22.8264 25.6697 22.557 25.8271 22.3266C25.9785 22.1049 25.9973 21.9914 25.9997 21.9917C25.9997 21.9917 26 21.9945 26 22C26 21.4477 26.4477 21 27 21C27.5523 21 28 21.4477 28 22C28 22.541 27.7521 23.0542 27.4786 23.4546C27.1877 23.8805 26.7864 24.2986 26.3108 24.6662C25.3625 25.3992 24.0279 26 22.5 26C20.9721 26 19.6375 25.3992 18.6892 24.6662C18.2136 24.2986 17.8123 23.8805 17.5214 23.4546C17.2479 23.0542 17 22.541 17 22C17 21.4477 17.4477 21 18 21Z" fill="#396CF6"/>
<path fill-rule="evenodd" clip-rule="evenodd" d="M24.722 24.8558L25.1835 26.7648C25.3133 27.3016 24.9834 27.842 24.4465 27.9718C23.9097 28.1016 23.3693 27.7716 23.2395 27.2348L22.778 25.3258L24.722 24.8558Z" fill="#396CF6"/>
<path fill-rule="evenodd" clip-rule="evenodd" d="M26.5895 23.354L27.5126 24.4449C27.8694 24.8665 27.8168 25.4974 27.3952 25.8542C26.9736 26.211 26.3426 26.1584 25.9859 25.7368L25.0628 24.646L26.5895 23.354Z" fill="#396CF6"/>
<path fill-rule="evenodd" clip-rule="evenodd" d="M20.0326 24.8373L19.5326 26.7464C19.3927 27.2807 19.7124 27.8272 20.2466 27.9671C20.7809 28.107 21.3274 27.7874 21.4674 27.2531L21.9674 25.344L20.0326 24.8373Z" fill="#396CF6"/>
<path fill-rule="evenodd" clip-rule="evenodd" d="M18.2648 23.3243L17.2648 24.4152C16.8916 24.8223 16.9191 25.4549 17.3262 25.8281C17.7333 26.2013 18.3659 26.1738 18.7391 25.7666L19.7391 24.6757L18.2648 23.3243Z" fill="#396CF6"/>
<path fill-rule="evenodd" clip-rule="evenodd" d="M17 7C17 6.44772 17.4477 6 18 6H22C24.2091 6 26 7.79086 26 10V18C26 18.5523 25.5523 19 25 19C24.4477 19 24 18.5523 24 18V10C24 8.89543 23.1046 8 22 8H18C17.4477 8 17 7.55228 17 7ZM7 13C7.55228 13 8 13.4477 8 14V22C8 23.1046 8.89543 24 10 24H14C14.5523 24 15 24.4477 15 25C15 25.5523 14.5523 26 14 26H10C7.79086 26 6 24.2091 6 22V14C6 13.4477 6.44772 13 7 13Z" fill="#396CF6"/>
</svg>
