<svg width="32" height="32" viewBox="0 0 32 32" fill="none" xmlns="http://www.w3.org/2000/svg">
<path fill-rule="evenodd" clip-rule="evenodd" d="M17 7C17 6.44772 17.4477 6 18 6H22C24.2091 6 26 7.79086 26 10V17C26 17.5523 25.5523 18 25 18C24.4477 18 24 17.5523 24 17V10C24 8.89543 23.1046 8 22 8H18C17.4477 8 17 7.55228 17 7ZM7 13C7.55228 13 8 13.4477 8 14V22C8 23.1046 8.89543 24 10 24H13C13.5523 24 14 24.4477 14 25C14 25.5523 13.5523 26 13 26H10C7.79086 26 6 24.2091 6 22V14C6 13.4477 6.44772 13 7 13Z" fill="#396CF6"/>
<path fill-rule="evenodd" clip-rule="evenodd" d="M8.70711 5.2929C9.09763 5.68342 9.09763 6.31659 8.7071 6.70711L7.41421 7.99999L8.70711 9.2929C9.09763 9.68342 9.09763 10.3166 8.7071 10.7071C8.31658 11.0976 7.68341 11.0976 7.29289 10.7071L5.29289 8.70708C5.10535 8.51954 5 8.26519 5 7.99997C5 7.73476 5.10536 7.4804 5.2929 7.29287L7.2929 5.29289C7.68342 4.90237 8.31659 4.90237 8.70711 5.2929Z" fill="#396CF6"/>
<path fill-rule="evenodd" clip-rule="evenodd" d="M11.2929 5.2929C10.9024 5.68342 10.9024 6.31659 11.2929 6.70711L12.5858 7.99999L11.2929 9.2929C10.9024 9.68342 10.9024 10.3166 11.2929 10.7071C11.6834 11.0976 12.3166 11.0976 12.7071 10.7071L14.7071 8.70708C14.8946 8.51954 15 8.26519 15 7.99997C15 7.73476 14.8946 7.4804 14.7071 7.29287L12.7071 5.29289C12.3166 4.90237 11.6834 4.90237 11.2929 5.2929Z" fill="#396CF6"/>
<path fill-rule="evenodd" clip-rule="evenodd" d="M25.9464 23.9651C25.9308 23.9354 25.9113 23.9009 25.8871 23.8615C25.7467 23.6338 25.5048 23.3429 25.1492 23.0556C24.4475 22.4885 23.3847 22 22 22C20.6153 22 19.5525 22.4885 18.8508 23.0556C18.4952 23.3429 18.2533 23.6338 18.113 23.8615C18.0887 23.9009 18.0692 23.9354 18.0536 23.9651C18.0701 23.9925 18.0901 24.0239 18.1144 24.0595C18.2797 24.3014 18.561 24.6112 18.9575 24.9176C19.7563 25.535 20.8371 26 22 26C23.1629 26 24.2437 25.535 25.0425 24.9176C25.439 24.6112 25.7203 24.3014 25.8856 24.0595C25.9099 24.0239 25.9299 23.9925 25.9464 23.9651ZM22 28C25.375 28 28 25.3333 28 24C28 22.6667 25.75 20 22 20C18.25 20 16 22.6667 16 24C16 25.3333 18.625 28 22 28Z" fill="#396CF6"/>
<path d="M23.5 24C23.5 24.8284 22.8284 25.5 22 25.5C21.1716 25.5 20.5 24.8284 20.5 24C20.5 23.1716 21.1716 22.5 22 22.5C22.5 22.5 22.125 23.125 22.5 23.5C22.875 23.875 23.5 23.5309 23.5 24Z" fill="#396CF6"/>
<path fill-rule="evenodd" clip-rule="evenodd" d="M22 23.5C21.7239 23.5 21.5 23.7239 21.5 24C21.5 24.1023 21.5109 24.2557 21.561 24.4364C21.5617 24.4365 21.5624 24.4367 21.5631 24.4369C21.7497 24.4902 21.9047 24.5 22 24.5C22.2761 24.5 22.5 24.2761 22.5 24C22.5 23.8619 22.444 23.7369 22.3536 23.6464C22.2631 23.556 22.1381 23.5 22 23.5ZM22.3241 25.4649C22.9967 25.3167 23.5 24.7171 23.5 24C23.5 23.7469 23.318 23.7305 23.0915 23.7102C22.8982 23.6929 22.6726 23.6726 22.5 23.5C22.3293 23.3293 22.314 23.1067 22.3008 22.9149C22.2851 22.6855 22.2724 22.5 22 22.5C21.2883 22.5 20.6923 22.9957 20.5386 23.6606C20.5133 23.7697 20.5 23.8833 20.5 24C20.5 24.0038 20.5 24.0077 20.5 24.0115C20.5062 24.8288 21.166 25.4906 21.9825 25.4999C21.9883 25.5 21.9942 25.5 22 25.5C22.1113 25.5 22.2197 25.4879 22.3241 25.4649Z" fill="#396CF6"/>
</svg>
