<svg width="32" height="32" viewBox="0 0 32 32" fill="none" xmlns="http://www.w3.org/2000/svg">
<path d="M18.0002 16C18.0002 17.1046 17.1048 18 16.0002 18C14.8957 18 14.0002 17.1046 14.0002 16C14.0002 14.8954 14.8957 14 16.0002 14C17.1048 14 18.0002 14.8954 18.0002 16Z" fill="#396CF6"/>
<path fill-rule="evenodd" clip-rule="evenodd" d="M17.9106 11.4508C18.2139 10.9893 18.834 10.861 19.2955 11.1643C20.081 11.6804 20.7328 12.3756 21.1973 13.1926C21.6619 14.0097 21.926 14.9253 21.9678 15.8642C22.0097 16.8032 21.8283 17.7386 21.4383 18.5938C21.0484 19.449 20.4611 20.1994 19.7247 20.7835C19.292 21.1267 18.663 21.0541 18.3198 20.6214C17.9766 20.1887 18.0492 19.5597 18.4819 19.2165C18.9703 18.8291 19.3599 18.3313 19.6186 17.764C19.8772 17.1967 19.9976 16.5762 19.9698 15.9534C19.942 15.3305 19.7669 14.7232 19.4587 14.1812C19.1505 13.6392 18.7182 13.1781 18.1972 12.8357C17.7356 12.5324 17.6073 11.9124 17.9106 11.4508Z" fill="#396CF6"/>
<path fill-rule="evenodd" clip-rule="evenodd" d="M14.0901 11.4508C13.7868 10.9893 13.1667 10.861 12.7052 11.1643C11.9197 11.6804 11.2679 12.3756 10.8034 13.1926C10.3388 14.0097 10.0747 14.9253 10.0329 15.8642C9.99096 16.8032 10.1724 17.7386 10.5624 18.5938C10.9523 19.449 11.5396 20.1994 12.276 20.7835C12.7087 21.1267 13.3377 21.0541 13.6809 20.6214C14.0241 20.1887 13.9515 19.5597 13.5188 19.2165C13.0304 18.8291 12.6408 18.3313 12.3821 17.764C12.1235 17.1967 12.0031 16.5762 12.0309 15.9534C12.0587 15.3305 12.2338 14.7232 12.542 14.1812C12.8502 13.6392 13.2825 13.1781 13.8035 12.8357C14.2651 12.5324 14.3934 11.9124 14.0901 11.4508Z" fill="#396CF6"/>
<path fill-rule="evenodd" clip-rule="evenodd" d="M20.6677 7.44972C20.9716 6.98857 21.5918 6.8611 22.0529 7.165C23.4905 8.11235 24.6827 9.38735 25.5315 10.8852C26.3803 12.383 26.8615 14.0609 26.9355 15.781C27.0095 17.501 26.6743 19.214 25.9573 20.7793C25.2404 22.3445 24.1622 23.7172 22.8113 24.7846C22.378 25.127 21.7491 25.0533 21.4067 24.62C21.0643 24.1866 21.138 23.5578 21.5714 23.2154C22.6739 22.3442 23.5539 21.2239 24.139 19.9464C24.7242 18.6689 24.9978 17.2708 24.9374 15.867C24.8769 14.4632 24.4842 13.0937 23.7914 11.8712C23.0987 10.6488 22.1257 9.60817 20.9524 8.83498C20.4913 8.53108 20.3638 7.91088 20.6677 7.44972Z" fill="#396CF6"/>
<path fill-rule="evenodd" clip-rule="evenodd" d="M11.3326 7.44972C11.0287 6.98857 10.4085 6.8611 9.94732 7.165C8.50978 8.11235 7.3176 9.38735 6.46879 10.8852C5.61999 12.383 5.13879 14.0609 5.06475 15.781C4.99072 17.501 5.32596 19.214 6.04293 20.7793C6.75989 22.3445 7.8381 23.7172 9.18892 24.7846C9.62226 25.127 10.2511 25.0533 10.5935 24.62C10.9359 24.1866 10.8622 23.5578 10.4289 23.2154C9.32639 22.3442 8.4464 21.2239 7.86125 19.9464C7.27609 18.6689 7.00248 17.2708 7.0629 15.867C7.12333 14.4632 7.51606 13.0937 8.20882 11.8712C8.90158 10.6488 9.87459 9.60817 11.0478 8.83498C11.509 8.53108 11.6365 7.91088 11.3326 7.44972Z" fill="#396CF6"/>
</svg>
