<svg width="32" height="32" viewBox="0 0 32 32" fill="none" xmlns="http://www.w3.org/2000/svg">
<path fill-rule="evenodd" clip-rule="evenodd" d="M20.924 14.9098C21.4758 14.8852 21.943 15.3125 21.9676 15.8642C22.0095 16.8032 21.828 17.7387 21.4381 18.5938C21.0481 19.449 20.4608 20.1994 19.7245 20.7835C19.2918 21.1267 18.6628 21.0541 18.3196 20.6214C17.9764 20.1887 18.0489 19.5597 18.4816 19.2165C18.9701 18.8291 19.3597 18.3313 19.6183 17.764C19.877 17.1968 19.9974 16.5762 19.9696 15.9534C19.945 15.4016 20.3723 14.9344 20.924 14.9098Z" fill="#396CF6"/>
<path fill-rule="evenodd" clip-rule="evenodd" d="M14.0898 11.4508C13.7865 10.9893 13.1665 10.861 12.705 11.1643C11.9195 11.6804 11.2677 12.3756 10.8031 13.1926C10.3386 14.0097 10.0745 14.9253 10.0326 15.8642C10.008 16.416 10.4353 16.8832 10.987 16.9078C11.5388 16.9324 12.006 16.5051 12.0306 15.9534C12.0584 15.3305 12.2336 14.7232 12.5418 14.1812C12.8499 13.6392 13.2823 13.1781 13.8033 12.8357C14.2649 12.5324 14.3931 11.9124 14.0898 11.4508Z" fill="#396CF6"/>
<path fill-rule="evenodd" clip-rule="evenodd" d="M24.553 11.1049C25.047 10.8579 25.6476 11.0581 25.8946 11.5521C26.459 12.6807 26.8621 14.0816 26.9353 15.781C27.0093 17.501 26.6741 19.2141 25.9571 20.7793C25.2401 22.3445 24.1619 23.7172 22.8111 24.7846C22.3778 25.127 21.7489 25.0533 21.4065 24.62C21.0641 24.1866 21.1378 23.5578 21.5711 23.2154C22.6736 22.3442 23.5536 21.2239 24.1388 19.9464C24.7239 18.6689 24.9975 17.2708 24.9371 15.867C24.8758 14.4425 24.5415 13.3179 24.1058 12.4465C23.8588 11.9526 24.059 11.3519 24.553 11.1049Z" fill="#396CF6"/>
<path fill-rule="evenodd" clip-rule="evenodd" d="M11.3323 7.44973C11.0284 6.98858 10.4082 6.86111 9.94708 7.16501C8.50954 8.11236 7.31737 9.38736 6.46856 10.8852C5.61975 12.383 5.13855 14.0609 5.06452 15.781C4.98821 17.5539 5.39994 18.9086 6.09063 20.4164C6.32063 20.9186 6.91412 21.1392 7.41624 20.9092C7.91835 20.6792 8.13895 20.0857 7.90895 19.5836C7.29752 18.2487 7.00452 17.218 7.06267 15.867C7.12309 14.4632 7.51583 13.0937 8.20859 11.8713C8.90135 10.6488 9.87435 9.60818 11.0476 8.83499C11.5088 8.53109 11.6362 7.91089 11.3323 7.44973Z" fill="#396CF6"/>
<path fill-rule="evenodd" clip-rule="evenodd" d="M26.7071 5.29289C27.0976 5.68342 27.0976 6.31658 26.7071 6.70711L6.70711 26.7071C6.31658 27.0976 5.68342 27.0976 5.29289 26.7071C4.90237 26.3166 4.90237 25.6834 5.29289 25.2929L25.2929 5.29289C25.6834 4.90237 26.3166 4.90237 26.7071 5.29289Z" fill="#396CF6"/>
</svg>
