<svg width="32" height="32" viewBox="0 0 32 32" fill="none" xmlns="http://www.w3.org/2000/svg">
<path fill-rule="evenodd" clip-rule="evenodd" d="M19 15C19 14.4477 19.4477 14 20 14H26C27.1046 14 28 14.8954 28 16V25C28 26.1046 27.1046 27 26 27H14C12.8954 27 12 26.1046 12 25V19C12 18.4477 12.4477 18 13 18C13.5523 18 14 18.4477 14 19V25H26V16H20C19.4477 16 19 15.5523 19 15Z" fill="#396CF6"/>
<path fill-rule="evenodd" clip-rule="evenodd" d="M5 9C5 7.89543 5.89543 7 7 7H8C8.55229 7 9 7.44772 9 8C9 8.55228 8.55229 9 8 9H7V9.75C7 10.3023 6.55228 10.75 6 10.75C5.44772 10.75 5 10.3023 5 9.75V9ZM11 8C11 7.44772 11.4477 7 12 7H14C14.5523 7 15 7.44772 15 8C15 8.55228 14.5523 9 14 9H12C11.4477 9 11 8.55228 11 8ZM17 8C17 7.44772 17.4477 7 18 7H19C20.1046 7 21 7.89543 21 9V10C21 10.5523 20.5523 11 20 11C19.4477 11 19 10.5523 19 10V9H18C17.4477 9 17 8.55228 17 8ZM6 11.75C6.55228 11.75 7 12.1977 7 12.75V14.25C7 14.8023 6.55228 15.25 6 15.25C5.44772 15.25 5 14.8023 5 14.25V12.75C5 12.1977 5.44772 11.75 6 11.75ZM20 13C20.5523 13 21 13.4477 21 14V15C21 15.5523 20.5523 16 20 16C19.4477 16 19 15.5523 19 15V14C19 13.4477 19.4477 13 20 13ZM6 16.25C6.55228 16.25 7 16.6977 7 17.25V18H8C8.55228 18 9 18.4477 9 19C9 19.5523 8.55228 20 8 20L7 20C5.89543 20 5 19.1046 5 18V17.25C5 16.6977 5.44772 16.25 6 16.25ZM11 19C11 18.4477 11.4477 18 12 18H13C13.5523 18 14 18.4477 14 19C14 19.5523 13.5523 20 13 20H12C11.4477 20 11 19.5523 11 19Z" fill="#396CF6"/>
<path fill-rule="evenodd" clip-rule="evenodd" d="M11 12C11 11.4477 11.4477 11 12 11H15C15.5523 11 16 11.4477 16 12C16 12.5523 15.5523 13 15 13H14.4142L19.7071 18.2929C20.0976 18.6834 20.0976 19.3166 19.7071 19.7071C19.3166 20.0976 18.6834 20.0976 18.2929 19.7071L13 14.4142V15C13 15.5523 12.5523 16 12 16C11.4477 16 11 15.5523 11 15V12Z" fill="#396CF6"/>
</svg>
