<svg width="32" height="32" viewBox="0 0 32 32" fill="none" xmlns="http://www.w3.org/2000/svg">
<path fill-rule="evenodd" clip-rule="evenodd" d="M12 14C12 12.8954 12.8954 12 14 12H26C27.1046 12 28 12.8954 28 14V23C28 24.1046 27.1046 25 26 25H14C12.8954 25 12 24.1046 12 23V14ZM26 14H14V16H26V14ZM26 18H14V23H26V18Z" fill="#396CF6"/>
<path fill-rule="evenodd" clip-rule="evenodd" d="M5 9C5 7.89543 5.89543 7 7 7H8C8.55229 7 9 7.44772 9 8C9 8.55228 8.55229 9 8 9H7V9.75C7 10.3023 6.55228 10.75 6 10.75C5.44772 10.75 5 10.3023 5 9.75V9ZM11 8C11 7.44772 11.4477 7 12 7H14C14.5523 7 15 7.44772 15 8C15 8.55228 14.5523 9 14 9H12C11.4477 9 11 8.55228 11 8ZM17 8C17 7.44772 17.4477 7 18 7H19C20.1046 7 21 7.89543 21 9V9.66667C21 10.219 20.5523 10.6667 20 10.6667C19.4477 10.6667 19 10.219 19 9.66667V9H18C17.4477 9 17 8.55228 17 8ZM20 11.3333C20.5523 11.3333 21 11.781 21 12.3333V13C21 13.5523 20.5523 14 20 14C19.4477 14 19 13.5523 19 13V12.3333C19 11.781 19.4477 11.3333 20 11.3333ZM6 11.75C6.55228 11.75 7 12.1977 7 12.75V14.25C7 14.8023 6.55228 15.25 6 15.25C5.44772 15.25 5 14.8023 5 14.25V12.75C5 12.1977 5.44772 11.75 6 11.75ZM6 16.25C6.55228 16.25 7 16.6977 7 17.25V18H8C8.55228 18 9 18.4477 9 19C9 19.5523 8.55228 20 8 20L7 20C5.89543 20 5 19.1046 5 18V17.25C5 16.6977 5.44772 16.25 6 16.25ZM11 19C11 18.4477 11.4477 18 12 18H13C13.5523 18 14 18.4477 14 19C14 19.5523 13.5523 20 13 20H12C11.4477 20 11 19.5523 11 19Z" fill="#396CF6"/>
</svg>
