<svg width="32" height="32" viewBox="0 0 32 32" fill="none" xmlns="http://www.w3.org/2000/svg">
<path fill-rule="evenodd" clip-rule="evenodd" d="M12 14C12 12.8954 12.8954 12 14 12H26C27.1046 12 28 12.8954 28 14V23C28 24.1046 27.1046 25 26 25H14C12.8954 25 12 24.1046 12 23V14ZM26 14H14V16H26V14ZM26 18H14V23H26V18Z" fill="#396CF6"/>
<path d="M7 8H19C19.5523 8 20 8.44772 20 9V12C20 12.5523 19.5523 13 19 13H14C13.4477 13 13 13.4477 13 14V18C13 18.5523 12.5523 19 12 19L7 19C6.44772 19 6 18.5523 6 18V9C6 8.44772 6.44772 8 7 8Z" fill="#396CF6"/>
<path fill-rule="evenodd" clip-rule="evenodd" d="M5 9C5 7.89543 5.89543 7 7 7H19C20.1046 7 21 7.89543 21 9V12C21 13.1046 20.1046 14 19 14L14 14V18C14 19.1046 13.1046 20 12 20L7 20C5.89543 20 5 19.1046 5 18V9ZM19 9H7V18H12V14C12 12.8954 12.8954 12 14 12L19 12V9Z" fill="#396CF6"/>
</svg>
