<svg width="32" height="32" viewBox="0 0 32 32" fill="none" xmlns="http://www.w3.org/2000/svg">
<path fill-rule="evenodd" clip-rule="evenodd" d="M20 13C20 11.8954 19.1046 11 18 11H10C8.89543 11 8 11.8954 8 13V19C8 20.1046 8.89543 21 10 21H18C19.1046 21 20 20.1046 20 19V13ZM18 13V19H10L10 13H18Z" fill="#396CF6"/>
<path fill-rule="evenodd" clip-rule="evenodd" d="M20.5858 12C21.8457 10.7401 24 11.6324 24 13.4142V18.5858C24 20.3676 21.8457 21.2599 20.5858 20L18.5858 18C18.2107 17.6249 18 17.1162 18 16.5858V15.4142C18 14.8838 18.2107 14.3751 18.5858 14L20.5858 12ZM22 13.4142L20 15.4142V16.5858L22 18.5858V13.4142Z" fill="#396CF6"/>
<path fill-rule="evenodd" clip-rule="evenodd" d="M4 10C4 8.34315 5.34315 7 7 7H25C26.6569 7 28 8.34315 28 10V22C28 23.6569 26.6569 25 25 25H7C5.34314 25 4 23.6569 4 22V10ZM7 9C6.44772 9 6 9.44772 6 10V22C6 22.5523 6.44772 23 7 23H25C25.5523 23 26 22.5523 26 22V10C26 9.44771 25.5523 9 25 9H7Z" fill="#396CF6"/>
</svg>
