<svg width="32" height="32" viewBox="0 0 32 32" fill="none" xmlns="http://www.w3.org/2000/svg">
<path fill-rule="evenodd" clip-rule="evenodd" d="M20 13C20 11.8954 19.1046 11 18 11H17C16.4477 11 16 11.4477 16 12C16 12.5523 16.4477 13 17 13H18V14C18 14.5523 18.4477 15 19 15C19.5523 15 20 14.5523 20 14V13ZM9 13C8.44771 13 8 13.4477 8 14V19C8 20.1046 8.89543 21 10 21H15C15.5523 21 16 20.5523 16 20C16 19.4477 15.5523 19 15 19H10V14C10 13.4477 9.55229 13 9 13Z" fill="#396CF6"/>
<path fill-rule="evenodd" clip-rule="evenodd" d="M20.8 11.4C22.1185 10.4111 24 11.3519 24 13V18C24 18.5523 23.5523 19 23 19C22.4477 19 22 18.5523 22 18V13L19.6 14.8C19.1582 15.1314 18.5314 15.0418 18.2 14.6C17.8686 14.1582 17.9582 13.5314 18.4 13.2L20.8 11.4Z" fill="#396CF6"/>
<path fill-rule="evenodd" clip-rule="evenodd" d="M12 8C12 7.44772 12.4477 7 13 7H25C26.6569 7 28 8.34315 28 10V21C28 21.5523 27.5523 22 27 22C26.4477 22 26 21.5523 26 21V10C26 9.44772 25.5523 9 25 9H13C12.4477 9 12 8.55228 12 8ZM5 10C5.55228 10 6 10.4477 6 11V22C6 22.5523 6.44772 23 7 23H19C19.5523 23 20 23.4477 20 24C20 24.5523 19.5523 25 19 25H7C5.34315 25 4 23.6569 4 22V11C4 10.4477 4.44772 10 5 10Z" fill="#396CF6"/>
<path fill-rule="evenodd" clip-rule="evenodd" d="M5.29289 5.29289C5.68342 4.90237 6.31658 4.90237 6.70711 5.29289L26.7071 25.2929C27.0976 25.6834 27.0976 26.3166 26.7071 26.7071C26.3166 27.0976 25.6834 27.0976 25.2929 26.7071L5.29289 6.70711C4.90237 6.31658 4.90237 5.68342 5.29289 5.29289Z" fill="#396CF6"/>
</svg>
